<svg width="925" height="246" viewBox="0 0 925 246" fill="none" xmlns="http://www.w3.org/2000/svg">
<g style="mix-blend-mode:multiply" opacity="0.47">
<path d="M145.33 162.994H194.238C193.257 179.024 188.84 193.255 180.989 205.687C173.246 218.118 162.396 227.824 148.438 234.803C134.588 241.782 117.904 245.271 98.3838 245.271C83.1169 245.271 69.4312 242.654 57.3267 237.42C45.2222 232.076 34.8625 224.443 26.2476 214.52C17.7417 204.596 11.2533 192.601 6.78223 178.533C2.3112 164.466 0.0756836 148.708 0.0756836 131.26V114.739C0.0756836 97.2913 2.36572 81.5337 6.9458 67.4663C11.6349 53.2899 18.2869 41.2399 26.9019 31.3164C35.6258 21.3929 46.04 13.7594 58.1445 8.41602C70.249 3.07259 83.7712 0.400879 98.7109 0.400879C118.558 0.400879 135.297 3.99951 148.928 11.1968C162.668 18.394 173.301 28.3175 180.825 40.9673C188.459 53.617 193.039 68.0116 194.565 84.1509H145.493C144.948 74.5545 143.04 66.4303 139.768 59.7783C136.497 53.0173 131.535 47.9465 124.883 44.5659C118.34 41.0763 109.616 39.3315 98.7109 39.3315C90.5322 39.3315 83.3895 40.8582 77.2827 43.9116C71.1759 46.965 66.0506 51.5996 61.9067 57.8154C57.7629 64.0312 54.6549 71.8828 52.583 81.3701C50.6201 90.7484 49.6387 101.762 49.6387 114.412V131.26C49.6387 143.583 50.5656 154.433 52.4194 163.812C54.2733 173.081 57.1086 180.932 60.9253 187.366C64.8511 193.691 69.8674 198.489 75.9741 201.761C82.1899 204.923 89.6598 206.504 98.3838 206.504C108.634 206.504 117.086 204.869 123.738 201.597C130.39 198.326 135.461 193.473 138.95 187.039C142.549 180.605 144.675 172.59 145.33 162.994Z" fill="#70F5F9"/>
<path d="M385.293 100.835V139.112H260.977V100.835H385.293ZM275.535 3.83594V242H226.462V3.83594H275.535ZM420.298 3.83594V242H371.389V3.83594H420.298Z" fill="#70F5F9"/>
<path d="M515.171 3.83594V242H466.262V3.83594H515.171Z" fill="#70F5F9"/>
<path d="M714.241 203.724V242H594.341V203.724H714.241ZM610.208 3.83594V242H561.135V3.83594H610.208Z" fill="#70F5F9"/>
<path d="M815.493 242H763.64L763.967 203.724H815.493C828.361 203.724 839.211 200.834 848.044 195.054C856.877 189.166 863.529 180.605 868 169.373C872.581 158.141 874.871 144.564 874.871 128.643V117.029C874.871 104.816 873.562 94.0744 870.945 84.8052C868.437 75.536 864.674 67.7389 859.658 61.4141C854.642 55.0892 848.481 50.3455 841.174 47.1831C833.868 43.9116 825.471 42.2759 815.984 42.2759H762.659V3.83594H815.984C831.905 3.83594 846.463 6.56217 859.658 12.0146C872.962 17.3581 884.467 25.0461 894.172 35.0786C903.878 45.1112 911.348 57.1066 916.582 71.0649C921.925 84.9142 924.597 100.345 924.597 117.356V128.643C924.597 145.546 921.925 160.976 916.582 174.935C911.348 188.893 903.878 200.888 894.172 210.921C884.576 220.844 873.071 228.532 859.658 233.985C846.354 239.328 831.632 242 815.493 242ZM791.448 3.83594V242H742.375V3.83594H791.448Z" fill="#70F5F9"/>
</g>
</svg>
