<svg width="1612" height="220" viewBox="0 0 1612 220" fill="none" xmlns="http://www.w3.org/2000/svg">
<g style="mix-blend-mode:multiply" opacity="0.65">
<path d="M142.32 90.584V124.861H30.9922V90.584H142.32ZM44.0293 3.71875V217H0.0839844V3.71875H44.0293ZM173.668 3.71875V217H129.869V3.71875H173.668Z" fill="#70F5F9"/>
<path d="M301.256 40.1934L243.248 217H196.52L275.768 3.71875H305.504L301.256 40.1934ZM349.449 217L291.295 40.1934L286.607 3.71875H316.637L396.324 217H349.449ZM346.812 137.605V172.029H234.166V137.605H346.812Z" fill="#70F5F9"/>
<path d="M499.156 140.975H444.811V106.697H499.156C507.555 106.697 514.391 105.33 519.664 102.596C524.938 99.7637 528.795 95.8574 531.236 90.877C533.678 85.8965 534.898 80.2812 534.898 74.0312C534.898 67.6836 533.678 61.7754 531.236 56.3066C528.795 50.8379 524.938 46.4434 519.664 43.123C514.391 39.8027 507.555 38.1426 499.156 38.1426H460.045V217H416.1V3.71875H499.156C515.855 3.71875 530.162 6.74609 542.076 12.8008C554.088 18.7578 563.268 27.0098 569.615 37.5566C575.963 48.1035 579.137 60.1641 579.137 73.7383C579.137 87.5078 575.963 99.4219 569.615 109.48C563.268 119.539 554.088 127.303 542.076 132.771C530.162 138.24 515.855 140.975 499.156 140.975Z" fill="#70F5F9"/>
<path d="M692.516 140.975H638.17V106.697H692.516C700.914 106.697 707.75 105.33 713.023 102.596C718.297 99.7637 722.154 95.8574 724.596 90.877C727.037 85.8965 728.258 80.2812 728.258 74.0312C728.258 67.6836 727.037 61.7754 724.596 56.3066C722.154 50.8379 718.297 46.4434 713.023 43.123C707.75 39.8027 700.914 38.1426 692.516 38.1426H653.404V217H609.459V3.71875H692.516C709.215 3.71875 723.521 6.74609 735.436 12.8008C747.447 18.7578 756.627 27.0098 762.975 37.5566C769.322 48.1035 772.496 60.1641 772.496 73.7383C772.496 87.5078 769.322 99.4219 762.975 109.48C756.627 119.539 747.447 127.303 735.436 132.771C723.521 138.24 709.215 140.975 692.516 140.975Z" fill="#70F5F9"/>
<path d="M849.547 3.71875V217H805.748V3.71875H849.547Z" fill="#70F5F9"/>
<path d="M1064.29 3.71875V217H1020.35L934.654 74.0312V217H890.709V3.71875H934.654L1020.49 146.834V3.71875H1064.29Z" fill="#70F5F9"/>
<path d="M1245.64 182.723V217H1132.12V182.723H1245.64ZM1146.47 3.71875V217H1102.53V3.71875H1146.47ZM1230.85 90.584V123.982H1132.12V90.584H1230.85ZM1245.49 3.71875V38.1426H1132.12V3.71875H1245.49Z" fill="#70F5F9"/>
<path d="M1382.31 161.189C1382.31 157.381 1381.72 153.963 1380.55 150.936C1379.48 147.811 1377.43 144.979 1374.4 142.439C1371.37 139.803 1367.12 137.215 1361.66 134.676C1356.19 132.137 1349.11 129.5 1340.42 126.766C1330.75 123.641 1321.57 120.125 1312.88 116.219C1304.28 112.312 1296.67 107.771 1290.03 102.596C1283.48 97.3223 1278.31 91.2188 1274.5 84.2852C1270.79 77.3516 1268.93 69.2949 1268.93 60.1152C1268.93 51.2285 1270.88 43.1719 1274.79 35.9453C1278.7 28.6211 1284.17 22.3711 1291.2 17.1953C1298.23 11.9219 1306.53 7.86914 1316.1 5.03711C1325.77 2.20508 1336.36 0.789062 1347.89 0.789062C1363.61 0.789062 1377.33 3.62109 1389.05 9.28516C1400.77 14.9492 1409.85 22.7129 1416.29 32.5762C1422.84 42.4395 1426.11 53.7188 1426.11 66.4141H1382.46C1382.46 60.1641 1381.14 54.6953 1378.5 50.0078C1375.96 45.2227 1372.06 41.4629 1366.78 38.7285C1361.61 35.9941 1355.06 34.627 1347.15 34.627C1339.54 34.627 1333.19 35.7988 1328.11 38.1426C1323.03 40.3887 1319.22 43.4648 1316.69 47.3711C1314.15 51.1797 1312.88 55.4766 1312.88 60.2617C1312.88 63.875 1313.76 67.1465 1315.51 70.0762C1317.37 73.0059 1320.1 75.7402 1323.72 78.2793C1327.33 80.8184 1331.77 83.2109 1337.05 85.457C1342.32 87.7031 1348.42 89.9004 1355.36 92.0488C1366.98 95.5645 1377.18 99.5195 1385.97 103.914C1394.86 108.309 1402.28 113.24 1408.24 118.709C1414.2 124.178 1418.69 130.379 1421.71 137.312C1424.74 144.246 1426.26 152.107 1426.26 160.896C1426.26 170.174 1424.45 178.475 1420.84 185.799C1417.22 193.123 1412 199.324 1405.16 204.402C1398.33 209.48 1390.17 213.338 1380.7 215.975C1371.23 218.611 1360.63 219.93 1348.91 219.93C1338.37 219.93 1327.96 218.562 1317.71 215.828C1307.46 212.996 1298.13 208.748 1289.73 203.084C1281.43 197.42 1274.79 190.193 1269.81 181.404C1264.83 172.615 1262.34 162.215 1262.34 150.203H1306.43C1306.43 156.844 1307.46 162.459 1309.51 167.049C1311.56 171.639 1314.44 175.35 1318.15 178.182C1321.96 181.014 1326.45 183.064 1331.63 184.334C1336.9 185.604 1342.66 186.238 1348.91 186.238C1356.53 186.238 1362.78 185.164 1367.66 183.016C1372.64 180.867 1376.3 177.889 1378.65 174.08C1381.09 170.271 1382.31 165.975 1382.31 161.189Z" fill="#70F5F9"/>
<path d="M1567.17 161.189C1567.17 157.381 1566.59 153.963 1565.42 150.936C1564.34 147.811 1562.29 144.979 1559.26 142.439C1556.24 139.803 1551.99 137.215 1546.52 134.676C1541.05 132.137 1533.97 129.5 1525.28 126.766C1515.61 123.641 1506.43 120.125 1497.74 116.219C1489.15 112.312 1481.53 107.771 1474.89 102.596C1468.35 97.3223 1463.17 91.2188 1459.36 84.2852C1455.65 77.3516 1453.79 69.2949 1453.79 60.1152C1453.79 51.2285 1455.75 43.1719 1459.65 35.9453C1463.56 28.6211 1469.03 22.3711 1476.06 17.1953C1483.09 11.9219 1491.39 7.86914 1500.96 5.03711C1510.63 2.20508 1521.23 0.789062 1532.75 0.789062C1548.47 0.789062 1562.19 3.62109 1573.91 9.28516C1585.63 14.9492 1594.71 22.7129 1601.16 32.5762C1607.7 42.4395 1610.97 53.7188 1610.97 66.4141H1567.32C1567.32 60.1641 1566 54.6953 1563.37 50.0078C1560.83 45.2227 1556.92 41.4629 1551.65 38.7285C1546.47 35.9941 1539.93 34.627 1532.02 34.627C1524.4 34.627 1518.05 35.7988 1512.97 38.1426C1507.9 40.3887 1504.09 43.4648 1501.55 47.3711C1499.01 51.1797 1497.74 55.4766 1497.74 60.2617C1497.74 63.875 1498.62 67.1465 1500.38 70.0762C1502.23 73.0059 1504.97 75.7402 1508.58 78.2793C1512.19 80.8184 1516.64 83.2109 1521.91 85.457C1527.18 87.7031 1533.29 89.9004 1540.22 92.0488C1551.84 95.5645 1562.05 99.5195 1570.84 103.914C1579.72 108.309 1587.14 113.24 1593.1 118.709C1599.06 124.178 1603.55 130.379 1606.58 137.312C1609.61 144.246 1611.12 152.107 1611.12 160.896C1611.12 170.174 1609.31 178.475 1605.7 185.799C1602.09 193.123 1596.86 199.324 1590.03 204.402C1583.19 209.48 1575.04 213.338 1565.56 215.975C1556.09 218.611 1545.49 219.93 1533.78 219.93C1523.23 219.93 1512.83 218.562 1502.57 215.828C1492.32 212.996 1482.99 208.748 1474.6 203.084C1466.29 197.42 1459.65 190.193 1454.67 181.404C1449.69 172.615 1447.2 162.215 1447.2 150.203H1491.29C1491.29 156.844 1492.32 162.459 1494.37 167.049C1496.42 171.639 1499.3 175.35 1503.01 178.182C1506.82 181.014 1511.31 183.064 1516.49 184.334C1521.76 185.604 1527.53 186.238 1533.78 186.238C1541.39 186.238 1547.64 185.164 1552.53 183.016C1557.51 180.867 1561.17 177.889 1563.51 174.08C1565.95 170.271 1567.17 165.975 1567.17 161.189Z" fill="#70F5F9"/>
</g>
</svg>
