<svg width="37" height="38" viewBox="0 0 37 38" fill="none" xmlns="http://www.w3.org/2000/svg">
<ellipse cx="18.6186" cy="18.539" rx="18.3814" ry="18.539" fill="white"/>
<circle cx="18.5" cy="18.5" r="13.75" fill="white" stroke="#70F5F9" stroke-width="1.5" stroke-linejoin="round"/>
<circle cx="14" cy="16" r="2" fill="#4113B7"/>
<circle cx="23" cy="16" r="2" fill="#4113B7"/>
<path fill-rule="evenodd" clip-rule="evenodd" d="M12.1135 22C11.5681 22 11.187 22.5383 11.4325 23.0254C12.755 25.6501 15.4235 27.4439 18.5 27.4439C21.5765 27.4439 24.245 25.6501 25.5675 23.0254C25.813 22.5383 25.4319 22 24.8865 22V22C24.5716 22 24.2902 22.1882 24.1413 22.4656C23.0454 24.5062 20.9299 25.8885 18.5 25.8885C16.0701 25.8885 13.9546 24.5062 12.8587 22.4656C12.7098 22.1882 12.4284 22 12.1135 22V22Z" fill="#4113B7"/>
</svg>
