<svg width="37" height="36" viewBox="0 0 37 36" fill="none" xmlns="http://www.w3.org/2000/svg">
<ellipse cx="18.1095" cy="18" rx="18.1095" ry="18" fill="white"/>
<path d="M5.04725 19.3982L13.7558 28.1068C14.4855 28.8364 15.6685 28.8364 16.3982 28.1068C17.1278 27.3771 17.1278 26.1941 16.3982 25.4644L11.7327 20.799C11.4178 20.484 11.6408 19.9454 12.0863 19.9454L30 19.9454C30.8284 19.9454 31.5 19.2739 31.5 18.4454L31.5 17.7086C31.5 16.8802 30.8284 16.2086 30 16.2086L12.0863 16.2086C11.6408 16.2086 11.4178 15.67 11.7327 15.355L16.3982 10.6896C17.1278 9.95993 17.1278 8.77692 16.3982 8.04725C15.6685 7.31759 14.4855 7.31759 13.7558 8.04725L5.04725 16.7558C4.31759 17.4855 4.31759 18.6685 5.04725 19.3982Z" fill="#70F5F9" stroke="#70F5F9" stroke-linejoin="round"/>
</svg>
