<svg width="37" height="36" viewBox="0 0 37 36" fill="none" xmlns="http://www.w3.org/2000/svg">
<ellipse cx="18.1095" cy="18" rx="18.1095" ry="18" fill="white"/>
<path fill-rule="evenodd" clip-rule="evenodd" d="M4 18.2093C4 17.5882 4.04045 16.9765 4.11886 16.3767C4.18106 15.901 4.59712 15.5607 5.07689 15.5607H30.9231C31.4029 15.5607 31.8189 15.901 31.8811 16.3767C31.9595 16.9765 32 17.5882 32 18.2093C32 18.8305 31.9595 19.4422 31.8811 20.0419C31.8189 20.5176 31.4029 20.858 30.9231 20.858H5.07688C4.59712 20.858 4.18106 20.5176 4.11886 20.0419C4.04045 19.4422 4 18.8305 4 18.2093ZM8.37772 26.1553C7.57159 26.1553 7.11426 27.0501 7.65777 27.6455C10.2179 30.4499 13.9035 32.2093 18 32.2093C22.0965 32.2093 25.7821 30.4499 28.3422 27.6455C28.8857 27.0501 28.4284 26.1553 27.6223 26.1553H8.37772ZM18 4.20932C22.0965 4.20932 25.7821 5.96876 28.3422 8.77318C28.8857 9.36854 28.4284 10.2634 27.6223 10.2634H8.37772C7.57159 10.2634 7.11426 9.36854 7.65777 8.77318C10.2179 5.96876 13.9035 4.20932 18 4.20932Z" fill="#4113B7"/>
</svg>
