<svg width="37" height="37" viewBox="0 0 37 37" fill="none" xmlns="http://www.w3.org/2000/svg">
<ellipse cx="18.1095" cy="18.7907" rx="18.1095" ry="18" fill="white"/>
<path fill-rule="evenodd" clip-rule="evenodd" d="M30.194 23.8939C29.9054 24.4752 29.3283 25.5814 27.7508 27.1189C27.0197 27.8314 26.1925 28.4689 25.3076 29.0126C25.2499 28.9563 25.1921 28.9001 25.1537 28.8438C24.4611 28.1689 23.4992 27.7564 22.4411 27.7564C21.3638 27.7564 20.4211 28.1689 19.7093 28.8438C19.1514 29.4063 18.7667 30.1188 18.632 30.9251C18.0933 30.9438 17.5354 30.9251 16.9968 30.8688C16.8621 30.0813 16.4774 29.3876 15.9195 28.8438C15.2269 28.1689 14.265 27.7564 13.2069 27.7564C12.2835 27.7564 11.4178 28.0939 10.7445 28.6376C8.20505 26.9314 6.26202 24.3627 5.41555 21.2128C3.56871 14.2754 7.83953 7.18805 14.9576 5.38809C19.4977 4.24436 25.5384 5.61309 28.3279 9.7005C32.2332 15.4754 27.4815 22.1877 20.5366 24.1939C20.2288 24.2877 19.844 24.4939 20.5943 24.8502C23.5762 26.2751 27.6931 25.1502 29.5784 23.519C29.9439 23.219 30.4633 23.3127 30.194 23.8939ZM17.2469 22.469C16.0541 21.794 13.8033 18.5316 14.7267 15.3254C16.285 9.90674 23.2683 9.13801 25.2114 13.0379C27.8277 18.2878 19.6516 23.819 17.2469 22.469Z" fill="#4113B7"/>
<path d="M24.2496 29.7438C23.7879 29.2751 23.1338 29.0126 22.4412 29.0126C21.7294 29.0126 21.0946 29.2751 20.6136 29.7438C20.1519 30.1938 19.8826 30.8126 19.8826 31.5063C19.8826 32.1813 20.1519 32.8188 20.6136 33.2688C21.0946 33.7188 21.7294 34 22.4412 34C23.1338 34 23.7879 33.7188 24.2496 33.2688C24.7113 32.8188 24.9999 32.1813 24.9999 31.5063C24.9999 30.8126 24.7113 30.1938 24.2496 29.7438Z" fill="#4113B7"/>
<path d="M31.9602 21.9202C32.8454 21.6958 33.3765 20.8145 33.1462 19.9517C32.916 19.089 32.0118 18.5714 31.1266 18.7958C30.2413 19.0202 29.7103 19.9015 29.9405 20.7642C30.1707 21.627 31.075 22.1445 31.9602 21.9202Z" fill="#4113B7"/>
<path d="M15.0154 29.7438C14.5537 29.2751 13.9189 29.0126 13.2071 29.0126C12.5145 29.0126 11.8604 29.2751 11.3987 29.7438C10.937 30.1938 10.6484 30.8126 10.6484 31.5063C10.6484 32.1813 10.937 32.8188 11.3987 33.2688C11.8604 33.7188 12.5145 34 13.2071 34C13.9189 34 14.5537 33.7188 15.0154 33.2688C15.4964 32.8188 15.7657 32.1813 15.7657 31.5063C15.7657 30.8126 15.4964 30.1938 15.0154 29.7438Z" fill="#4113B7"/>
</svg>
