<svg width="32" height="32" viewBox="0 0 32 32" fill="none" xmlns="http://www.w3.org/2000/svg">
<path fill-rule="evenodd" clip-rule="evenodd" d="M27.8164 20.8485C27.498 21.4899 26.8611 22.7105 25.1204 24.407C24.3137 25.1932 23.4009 25.8967 22.4244 26.4967C22.3608 26.4346 22.2971 26.3725 22.2546 26.3104C21.4904 25.5656 20.429 25.1105 19.2615 25.1105C18.0727 25.1105 17.0325 25.5656 16.2471 26.3104C15.6315 26.9311 15.2069 27.7173 15.0583 28.607C14.4639 28.6276 13.8483 28.607 13.2539 28.5449C13.1053 27.6759 12.6808 26.9104 12.0652 26.3104C11.3009 25.5656 10.2395 25.1105 9.072 25.1105C8.05305 25.1105 7.09779 25.4829 6.35481 26.0829C3.55271 24.2001 1.40867 21.3657 0.474639 17.8899C-1.56325 10.2349 3.14937 2.4144 11.0038 0.428237C16.0136 -0.833805 22.6792 0.676508 25.7573 5.18676C30.0665 11.559 24.8232 18.9658 17.1599 21.1795C16.8202 21.283 16.3957 21.5106 17.2236 21.9036C20.5139 23.476 25.0567 22.2347 27.1371 20.4347C27.5404 20.1037 28.1136 20.2071 27.8164 20.8485ZM13.5299 19.2761C12.2138 18.5313 9.73007 14.9314 10.749 11.3935C12.4685 5.41434 20.1743 4.56608 22.3183 8.86944C25.2053 14.6624 16.1834 20.7657 13.5299 19.2761Z" fill="#4113B7"/>
<path d="M21.2569 27.3035C20.7475 26.7863 20.0257 26.4967 19.2615 26.4967C18.4761 26.4967 17.7755 26.7863 17.2448 27.3035C16.7354 27.8001 16.4382 28.4828 16.4382 29.2483C16.4382 29.9931 16.7354 30.6966 17.2448 31.1931C17.7755 31.6897 18.4761 32 19.2615 32C20.0257 32 20.7475 31.6897 21.2569 31.1931C21.7664 30.6966 22.0848 29.9931 22.0848 29.2483C22.0848 28.4828 21.7664 27.8001 21.2569 27.3035Z" fill="#4113B7"/>
<path d="M29.7652 18.6705C30.7421 18.4229 31.328 17.4505 31.074 16.4985C30.82 15.5464 29.8222 14.9754 28.8453 15.2229C27.8685 15.4705 27.2826 16.443 27.5366 17.395C27.7906 18.347 28.7884 18.9181 29.7652 18.6705Z" fill="#4113B7"/>
<path d="M11.0675 27.3035C10.5581 26.7863 9.85755 26.4967 9.07211 26.4967C8.3079 26.4967 7.58615 26.7863 7.07667 27.3035C6.5672 27.8001 6.24878 28.4828 6.24878 29.2483C6.24878 29.9931 6.5672 30.6966 7.07667 31.1931C7.58615 31.6897 8.3079 32 9.07211 32C9.85755 32 10.5581 31.6897 11.0675 31.1931C11.5982 30.6966 11.8954 29.9931 11.8954 29.2483C11.8954 28.4828 11.5982 27.8001 11.0675 27.3035Z" fill="#4113B7"/>
</svg>
