<svg width="30" height="30" viewBox="0 0 30 30" fill="none" xmlns="http://www.w3.org/2000/svg">
<circle cx="15" cy="15" r="15" fill="white"/>
<path d="M20.2703 7.91892V5.86487C20.2703 5.31258 19.8226 4.86487 19.2703 4.86487H17.0271C16.4865 4.86487 14.5946 4.86487 13.3784 6.08108C12.4067 7.05282 12.1622 8.37838 12.1622 8.91892V11.973C12.1622 12.5253 11.7145 12.973 11.1622 12.973H9.91895C9.36666 12.973 8.91895 13.4207 8.91895 13.973V16.027C8.91895 16.5793 9.36666 17.027 9.91895 17.027H11.1622C11.7145 17.027 12.1622 17.4747 12.1622 18.027V24.1351C12.1622 24.6874 12.6099 25.1351 13.1622 25.1351H15.2162C15.7685 25.1351 16.2162 24.6874 16.2162 24.1351V18.027C16.2162 17.4747 16.664 17.027 17.2162 17.027H18.6397C19.1164 17.027 19.5268 16.6906 19.6203 16.2231L20.0311 14.1691C20.1548 13.5503 19.6815 12.973 19.0505 12.973H17.2162C16.664 12.973 16.2162 12.5253 16.2162 11.973V9.91892C16.2162 9.36664 16.664 8.91892 17.2162 8.91892H19.2703C19.8226 8.91892 20.2703 8.47121 20.2703 7.91892Z" fill="#70F5F9"/>
</svg>
