<svg width="37" height="36" viewBox="0 0 37 36" fill="none" xmlns="http://www.w3.org/2000/svg">
<ellipse cx="18.1095" cy="18" rx="18.1095" ry="18" transform="matrix(-1 0 0 1 36.219 0)" fill="white"/>
<path d="M31.1717 19.3982L22.4632 28.1068C21.7335 28.8364 20.5505 28.8364 19.8208 28.1068C19.0912 27.3771 19.0912 26.1941 19.8208 25.4644L24.4863 20.799C24.8012 20.484 24.5781 19.9454 24.1327 19.9454L6.21899 19.9454C5.39056 19.9454 4.71899 19.2739 4.71899 18.4454L4.71899 17.7086C4.71899 16.8802 5.39057 16.2086 6.21899 16.2086L24.1327 16.2086C24.5782 16.2086 24.8012 15.67 24.4863 15.355L19.8208 10.6896C19.0912 9.95993 19.0912 8.77692 19.8208 8.04725C20.5505 7.31759 21.7335 7.31759 22.4632 8.04725L31.1717 16.7558C31.9014 17.4855 31.9014 18.6685 31.1717 19.3982Z" fill="#70F5F9" stroke="#70F5F9" stroke-linejoin="round"/>
</svg>
