<svg width="30" height="30" viewBox="0 0 30 30" fill="none" xmlns="http://www.w3.org/2000/svg">
<circle cx="15" cy="15" r="15" fill="#4113B7"/>
<path fill-rule="evenodd" clip-rule="evenodd" d="M10.6757 5.67567C7.91424 5.67567 5.67566 7.91425 5.67566 10.6757V18.5135C5.67566 21.2749 7.91424 23.5135 10.6757 23.5135H18.5135C21.2749 23.5135 23.5135 21.2749 23.5135 18.5135V10.6757C23.5135 7.91425 21.2749 5.67567 18.5135 5.67567H10.6757ZM10.1621 7.16216C8.50529 7.16216 7.16215 8.50531 7.16215 10.1622V19.027C7.16215 20.6839 8.50529 22.027 10.1621 22.027H19.027C20.6839 22.027 22.027 20.6839 22.027 19.027V10.1622C22.027 8.50531 20.6839 7.16216 19.027 7.16216H10.1621Z" fill="#F8FCE9"/>
<path fill-rule="evenodd" clip-rule="evenodd" d="M14.5946 19.0541C17.0575 19.0541 19.0541 17.0575 19.0541 14.5946C19.0541 12.1317 17.0575 10.1351 14.5946 10.1351C12.1317 10.1351 10.1351 12.1317 10.1351 14.5946C10.1351 17.0575 12.1317 19.0541 14.5946 19.0541ZM14.5946 17.5676C16.2365 17.5676 17.5676 16.2365 17.5676 14.5946C17.5676 12.9527 16.2365 11.6216 14.5946 11.6216C12.9527 11.6216 11.6216 12.9527 11.6216 14.5946C11.6216 16.2365 12.9527 17.5676 14.5946 17.5676Z" fill="#F8FCE9"/>
<circle cx="19.4257" cy="9.76351" r="1.11487" fill="#F8FCE9"/>
</svg>
