<svg width="34" height="39" viewBox="0 0 34 39" fill="none" xmlns="http://www.w3.org/2000/svg">
<path fill-rule="evenodd" clip-rule="evenodd" d="M16.1921 31.2907C24.7525 31.2907 31.6921 24.3511 31.6921 15.7907C31.6921 7.23027 24.7525 0.29068 16.1921 0.29068C7.63166 0.29068 0.692078 7.23027 0.692078 15.7907C0.692078 24.3511 7.63166 31.2907 16.1921 31.2907ZM19.6921 26.2907C24.6626 26.2907 28.6921 22.0374 28.6921 16.7907C28.6921 11.544 24.6626 7.29068 19.6921 7.29068C14.7215 7.29068 10.6921 11.544 10.6921 16.7907C10.6921 22.0374 14.7215 26.2907 19.6921 26.2907Z" fill="#4113B7"/>
<path d="M26.6593 33.6244C26.5166 34.1439 28.821 35.9785 30.3998 37.1325C30.7453 37.385 31.2131 37.3806 31.5594 37.1292L31.9438 36.8501L32.3283 36.571C32.6746 36.3196 32.8236 35.8761 32.6905 35.4694C32.0822 33.6108 31.0515 30.8515 30.5133 30.8263C29.7518 30.7907 28.9437 31.7043 28.4619 32.0541C27.9802 32.4038 26.8612 32.8892 26.6593 33.6244Z" fill="#4113B7"/>
<path d="M24.8384 32.3797C25.9517 32.299 26.3722 32.2448 27.8272 31.1885C29.2822 30.1322 29.4879 29.7307 29.9541 28.6657C30.3455 27.7714 30.2555 25.7183 29.2963 26.4147C28.3372 27.1111 27.6061 28.1714 26.3165 29.1077C24.9037 30.1334 23.861 30.3608 22.9018 31.0571C21.9426 31.7535 23.4468 32.4804 24.8384 32.3797Z" fill="#4113B7"/>
</svg>
