<svg width="37" height="37" viewBox="0 0 37 37" fill="none" xmlns="http://www.w3.org/2000/svg">
<ellipse cx="18.1095" cy="18.7907" rx="18.1095" ry="18" fill="white"/>
<path fill-rule="evenodd" clip-rule="evenodd" d="M17.5974 27.1948C23.4502 27.1948 28.1948 22.4502 28.1948 16.5974C28.1948 10.7446 23.4502 6 17.5974 6C11.7446 6 7 10.7446 7 16.5974C7 22.4502 11.7446 27.1948 17.5974 27.1948ZM19.9904 23.7763C23.3888 23.7763 26.1437 20.8683 26.1437 17.2811C26.1437 13.6939 23.3888 10.7859 19.9904 10.7859C16.592 10.7859 13.837 13.6939 13.837 17.2811C13.837 20.8683 16.592 23.7763 19.9904 23.7763Z" fill="#4113B7"/>
<path d="M24.7539 28.7904C24.6617 29.126 26.0635 30.2645 27.1289 31.0546C27.4727 31.3095 27.941 31.3051 28.2873 31.0537L28.3669 30.9958L28.4466 30.938C28.7929 30.6866 28.9422 30.2426 28.8063 29.8369C28.385 28.5791 27.7366 26.8936 27.3889 26.8773C26.8682 26.853 26.3157 27.4776 25.9863 27.7167C25.657 27.9559 24.8919 28.2877 24.7539 28.7904Z" fill="#4113B7"/>
<path d="M23.509 27.9393C24.2701 27.8842 24.5576 27.8472 25.5524 27.125C26.5472 26.4028 26.6878 26.1283 27.0065 25.4001C27.2742 24.7887 27.2126 23.385 26.5568 23.8611C25.9011 24.3372 25.4013 25.0621 24.5195 25.7023C23.5536 26.4036 22.8407 26.559 22.1849 27.0351C21.5291 27.5112 22.5575 28.0082 23.509 27.9393Z" fill="#4113B7"/>
</svg>
