<svg width="26" height="24" viewBox="0 0 26 24" fill="none" xmlns="http://www.w3.org/2000/svg">
<path d="M13.6925 1.61792L15.9232 6.98122C16.2472 7.76025 16.9799 8.29253 17.8209 8.35995L23.611 8.82415C24.276 8.87746 24.5456 9.70734 24.039 10.1413L19.6275 13.9202C18.9868 14.4691 18.7069 15.3304 18.9027 16.1511L20.2505 21.8013C20.4052 22.4502 19.6993 22.9631 19.13 22.6153L14.1728 19.5875C13.4528 19.1477 12.5472 19.1477 11.8272 19.5875L6.87002 22.6153C6.30069 22.9631 5.59475 22.4502 5.74954 21.8013L7.09732 16.1511C7.29309 15.3304 7.01325 14.4691 6.37247 13.9202L1.961 10.1413C1.45435 9.70734 1.724 8.87746 2.38898 8.82415L8.17912 8.35995C9.02015 8.29253 9.75277 7.76025 10.0768 6.98122L12.3075 1.61792C12.5637 1.00195 13.4363 1.00195 13.6925 1.61792Z" fill="white" stroke="#F970F4" stroke-width="1.5" stroke-linejoin="round"/>
</svg>
