<svg width="26" height="24" viewBox="0 0 26 24" fill="none" xmlns="http://www.w3.org/2000/svg">
<path d="M11.615 1.32989C12.1274 0.0979554 13.8726 0.097954 14.385 1.32989L16.6157 6.69319C16.8317 7.21255 17.3201 7.5674 17.8808 7.61235L23.6709 8.07654C25.0009 8.18317 25.5402 9.84293 24.5269 10.7109L20.1154 14.4898C19.6883 14.8558 19.5017 15.4299 19.6322 15.9771L20.98 21.6272C21.2896 22.9251 19.8777 23.9509 18.739 23.2554L13.7819 20.2276C13.3019 19.9344 12.6981 19.9344 12.2181 20.2276L7.26096 23.2554C6.12231 23.9509 4.71043 22.9251 5.02001 21.6272L6.36779 15.9771C6.4983 15.4299 6.31174 14.8558 5.88456 14.4898L1.47309 10.7109C0.459781 9.84293 0.999069 8.18317 2.32905 8.07654L8.11919 7.61235C8.67987 7.5674 9.16829 7.21255 9.3843 6.69319L11.615 1.32989Z" fill="#F970F4"/>
</svg>
