<svg width="30" height="30" viewBox="0 0 30 30" fill="none" xmlns="http://www.w3.org/2000/svg">
<circle cx="15" cy="15" r="15" fill="#4113B7"/>
<path d="M16.6868 7.37542C15.1996 8.44624 14.8522 10.4551 15.1661 11.7213C14.0097 11.7213 12.4072 11.3422 11.0986 10.8576C8.97915 10.0726 7.18587 8.47064 6.37644 7.17318C6.21994 7.33979 5.67974 7.98442 5.67974 9.29356C5.67974 10.998 6.73149 12.3211 7.68567 13.0119C7.50897 12.9765 7.06501 12.9434 6.74646 12.8822C6.41308 12.8181 5.90693 12.6155 5.67974 12.459C5.70913 13.5446 5.86333 13.9651 6.37644 14.852C6.94545 15.8355 8.26745 16.5711 9.13579 16.7276C8.99948 16.7882 8.72142 16.8773 8.18829 16.8773C7.65517 16.8773 7.34437 16.8288 7.15903 16.7597C7.18932 16.896 7.37579 17.498 8.0576 18.3658C8.73235 19.2246 10.1612 19.7712 11.1668 19.8179C10.8372 20.0435 9.90862 20.6905 8.65494 21.1406C7.25003 21.6448 5.58489 21.6599 4.86487 21.5558C9.07228 24.1528 13.5199 24.0195 17.3804 22.0178C22.1453 19.5471 23.8463 13.8308 23.6932 10.7297C23.8791 10.6058 24.3348 10.4186 24.7962 9.9985C25.1826 9.64673 25.7613 8.79156 25.9613 8.32532C25.7506 8.45339 25.1728 8.76927 24.5577 8.92083C23.9396 9.0731 23.4254 9.13481 23.185 9.1805C23.4833 9.01891 24.0095 8.65669 24.4061 8.27C24.8027 7.88331 25.1185 7.04048 25.1804 6.75129C24.9697 6.86697 24.4451 7.24617 23.8622 7.44977C23.2114 7.67712 22.7389 7.79748 22.4414 7.85436C21.5356 6.82318 19.1153 5.62697 16.6868 7.37542Z" fill="#F8FCE9"/>
</svg>
