<svg width="30" height="30" viewBox="0 0 30 30" fill="none" xmlns="http://www.w3.org/2000/svg">
<circle cx="15" cy="15" r="15" fill="white"/>
<path d="M17.1089 8.83531C15.7113 9.84155 15.3849 11.7292 15.6799 12.919C14.5933 12.919 13.0874 12.5629 11.8577 12.1074C9.86612 11.3698 8.18101 9.86448 7.4204 8.64528C7.27333 8.80183 6.76572 9.40758 6.76572 10.6378C6.76572 12.2394 7.75404 13.4826 8.65066 14.1318C8.48461 14.0986 8.06743 14.0675 7.7681 14.0099C7.45483 13.9497 6.97921 13.7593 6.76572 13.6123C6.79334 14.6323 6.93823 15.0275 7.4204 15.8609C7.95508 16.7851 9.19734 17.4764 10.0133 17.6234C9.88522 17.6804 9.62393 17.7641 9.12296 17.7641C8.62199 17.7641 8.32995 17.7185 8.15578 17.6536C8.18424 17.7817 8.35946 18.3473 9.00016 19.1628C9.6342 19.9698 10.9769 20.4834 11.9218 20.5273C11.6121 20.7393 10.7395 21.3473 9.56146 21.7702C8.2413 22.244 6.67659 22.2582 6 22.1604C9.95363 24.6007 14.1329 24.4755 17.7606 22.5945C22.2381 20.2728 23.8366 14.9013 23.6926 11.9873C23.8673 11.8708 24.2955 11.695 24.7291 11.3002C25.0922 10.9696 25.636 10.166 25.8239 9.72791C25.6259 9.84826 25.083 10.1451 24.505 10.2875C23.9242 10.4306 23.441 10.4886 23.2151 10.5315C23.4955 10.3797 23.9899 10.0393 24.3626 9.67593C24.7352 9.31257 25.032 8.52058 25.0902 8.24883C24.8922 8.35753 24.3992 8.71386 23.8515 8.90518C23.2399 9.11881 22.7959 9.23191 22.5163 9.28536C21.6652 8.31638 19.3909 7.19233 17.1089 8.83531Z" fill="#70F5F9"/>
</svg>
